<svg width="36" height="36" viewBox="0 0 36 36" fill="none" xmlns="http://www.w3.org/2000/svg">
<path d="M8.91992 14C9.51327 14 10.0933 13.8241 10.5867 13.4944C11.08 13.1648 11.4645 12.6962 11.6916 12.1481C11.9186 11.5999 11.9781 10.9967 11.8623 10.4147C11.7465 9.83279 11.4608 9.29824 11.0413 8.87868C10.6217 8.45912 10.0872 8.1734 9.50519 8.05765C8.92325 7.94189 8.32005 8.0013 7.77187 8.22836C7.2237 8.45543 6.75516 8.83994 6.42551 9.33329C6.09587 9.82664 5.91992 10.4067 5.91992 11C5.91992 11.7957 6.23599 12.5587 6.7986 13.1213C7.36121 13.6839 8.12427 14 8.91992 14ZM8.91992 9.4C9.23679 9.39802 9.54711 9.49017 9.81154 9.66478C10.076 9.83938 10.2826 10.0886 10.4053 10.3807C10.5279 10.6729 10.561 10.9949 10.5004 11.306C10.4398 11.617 10.2882 11.903 10.0649 12.1278C9.84148 12.3526 9.5564 12.5059 9.24576 12.5685C8.93513 12.631 8.61291 12.5999 8.31996 12.4791C8.02702 12.3583 7.77654 12.1533 7.60028 11.8899C7.42403 11.6266 7.32993 11.3169 7.32992 11C7.33255 10.5791 7.50091 10.1762 7.79852 9.8786C8.09614 9.58098 8.49904 9.41262 8.91992 9.41V9.4Z" fill="url(#paint0_linear)" stroke="url(#paint1_linear)"/>
<path fill-rule="evenodd" clip-rule="evenodd" d="M4 3.5H32C32.663 3.5 33.2989 3.76339 33.7678 4.23223C34.2366 4.70107 34.5 5.33696 34.5 6V30C34.5 30.663 34.2366 31.2989 33.7678 31.7678C33.2989 32.2366 32.663 32.5 32 32.5H4C3.33696 32.5 2.70107 32.2366 2.23223 31.7678C1.76339 31.2989 1.5 30.663 1.5 30V6C1.5 5.33696 1.76339 4.70107 2.23223 4.23223C2.70107 3.76339 3.33696 3.5 4 3.5ZM4.5 6.5V29.5H31.5V6.5H4.5Z" fill="url(#paint2_linear)"/>
<path d="M22.4274 15.0153C22.7085 14.7359 23.0887 14.5791 23.4849 14.5791C23.8812 14.5791 24.2614 14.7359 24.5424 15.0153L24.5435 15.0163L30.4999 20.9728V25.2031L23.4507 18.1862L15.3535 26.2834L15.2071 26.4299H11.0428L11.8964 25.5763L15.2901 22.1826L12.7126 19.6443L6.27348 26.0834L5.41992 26.937V22.6947L11.6141 16.4187L11.6174 16.4153C11.8985 16.1359 12.2787 15.9791 12.6749 15.9791C13.0712 15.9791 13.4514 16.1359 13.7324 16.4153L13.7335 16.4163L17.3799 20.0628L22.4274 15.0153Z" fill="url(#paint3_linear)"/>
<defs>
<linearGradient id="paint0_linear" x1="8.91993" y1="8" x2="8.91993" y2="14" gradientUnits="userSpaceOnUse">
<stop stop-color="#BAFA52"/>
<stop offset="1" stop-color="#3F8F5B"/>
</linearGradient>
<linearGradient id="paint1_linear" x1="8.91993" y1="8" x2="8.91993" y2="14" gradientUnits="userSpaceOnUse">
<stop stop-color="#BAFA52"/>
<stop offset="1" stop-color="#3F8F5B"/>
</linearGradient>
<linearGradient id="paint2_linear" x1="18" y1="32.5" x2="18" y2="3.5" gradientUnits="userSpaceOnUse">
<stop stop-color="#5570FF"/>
<stop offset="1" stop-color="#4DD3FF"/>
</linearGradient>
<linearGradient id="paint3_linear" x1="17.9599" y1="14.5791" x2="17.9599" y2="26.937" gradientUnits="userSpaceOnUse">
<stop stop-color="#BAFA52"/>
<stop offset="1" stop-color="#3F8F5B"/>
</linearGradient>
</defs>
</svg>
