<svg width="252" height="231" viewBox="0 0 252 231" fill="none" xmlns="http://www.w3.org/2000/svg">
<path fill-rule="evenodd" clip-rule="evenodd" d="M129.836 137.777C129.836 140.774 127.122 143.203 123.776 143.203H63.1707C59.8242 143.203 57.1105 140.774 57.1105 137.777C57.1105 134.779 59.8242 132.35 63.1707 132.35H123.776C127.122 132.35 129.836 134.779 129.836 137.777ZM129.836 159.483C129.836 162.48 127.122 164.909 123.776 164.909H63.1707C59.8242 164.909 57.1105 162.48 57.1105 159.483C57.1105 156.487 59.8242 154.057 63.1707 154.057H123.776C127.122 154.057 129.836 156.487 129.836 159.483ZM208.622 186.616H148.017C144.67 186.616 141.956 184.187 141.956 181.189V116.07C141.956 113.073 144.67 110.644 148.017 110.644H208.622C211.968 110.644 214.682 113.073 214.682 116.07V181.189C214.682 184.187 211.968 186.616 208.622 186.616ZM202.561 121.497H154.078V175.763H202.561V121.497ZM87.4129 121.497H63.1707C59.8242 121.497 57.1105 119.068 57.1105 116.07C57.1105 113.073 59.8242 110.644 63.1707 110.644H87.4129C90.7595 110.644 93.4732 113.073 93.4732 116.07C93.4732 119.068 90.7595 121.497 87.4129 121.497ZM69.231 72.6578C69.231 75.6542 66.5173 78.084 63.1707 78.084C59.8242 78.084 57.1105 75.6542 57.1105 72.6578C57.1105 69.6601 59.8242 67.2304 63.1707 67.2304C66.5173 67.2304 69.231 69.6601 69.231 72.6578ZM38.5249 45.5244H233.268C236.614 45.5244 239.328 47.9541 239.328 50.9506V202.896C239.328 205.893 236.614 208.322 233.268 208.322H38.5249C35.1778 208.322 32.4644 205.893 32.4644 202.896V50.9506C32.4644 47.9541 35.1778 45.5244 38.5249 45.5244ZM44.5852 197.469H227.207V99.7899H44.5852V197.469ZM44.5852 88.9376H227.207V56.378H44.5852V88.9376ZM129.836 181.189C129.836 184.187 127.122 186.616 123.776 186.616H63.1707C59.8242 186.616 57.1105 184.187 57.1105 181.189C57.1105 178.193 59.8242 175.763 63.1707 175.763H123.776C127.122 175.763 129.836 178.193 129.836 181.189ZM93.4732 72.6578C93.4732 75.6542 90.7595 78.084 87.4129 78.084C84.0652 78.084 81.3515 75.6542 81.3515 72.6578C81.3515 69.6601 84.0652 67.2304 87.4129 67.2304C90.7595 67.2304 93.4732 69.6601 93.4732 72.6578ZM117.714 72.6578C117.714 75.6542 115.002 78.084 111.654 78.084C108.307 78.084 105.594 75.6542 105.594 72.6578C105.594 69.6601 108.307 67.2304 111.654 67.2304C115.002 67.2304 117.714 69.6601 117.714 72.6578Z" fill="url(#paint0_linear)"/>
<path d="M13 33C13 27.4771 17.4772 23 23 23H165.885C169.199 23 171.885 25.6863 171.885 29C171.885 32.3137 169.199 35 165.885 35H25V161.197C25 164.51 22.3137 167.197 19 167.197C15.6863 167.197 13 164.51 13 161.197V33Z" fill="url(#paint1_linear)"/>
<defs>
<linearGradient id="paint0_linear" x1="135.896" y1="208.322" x2="135.896" y2="45.5244" gradientUnits="userSpaceOnUse">
<stop stop-color="#00B59C"/>
<stop offset="1" stop-color="#9CFFAC"/>
</linearGradient>
<linearGradient id="paint1_linear" x1="92.4425" y1="167.197" x2="92.4425" y2="23" gradientUnits="userSpaceOnUse">
<stop stop-color="#5570FF"/>
<stop offset="1" stop-color="#4DD3FF"/>
</linearGradient>
</defs>
</svg>
