<svg width="48" height="48" viewBox="0 0 48 48" fill="none" xmlns="http://www.w3.org/2000/svg">
<path fill-rule="evenodd" clip-rule="evenodd" d="M6.8 28.1928L16.527 20.0788C18.349 18.5578 21.191 18.6878 22.868 20.3668L27.135 24.6398C27.974 25.4788 29.491 25.6828 30.521 25.0938L40.267 19.5238C40.782 19.2298 41.2 18.5088 41.2 17.9158V11.6378C41.2 9.85782 39.755 8.41182 37.975 8.41182H10.025C8.245 8.41182 6.8 9.85782 6.8 11.6378V28.1928ZM41.2 28.8378C41.2 27.6508 42.163 26.6878 43.35 26.6878C44.537 26.6878 45.5 27.6508 45.5 28.8378V38.5128C45.5 41.4788 43.092 43.8878 40.125 43.8878H7.875C4.908 43.8878 2.5 41.4788 2.5 38.5128V9.48682C2.5 6.52082 4.908 4.11182 7.875 4.11182H40.125C43.092 4.11182 45.5 6.52082 45.5 9.48682V19.3338C45.5 20.5208 44.664 21.9618 43.633 22.5508L31.679 29.3808C29.618 30.5578 26.582 30.1528 24.903 28.4758L21.092 24.6698C20.253 23.8318 18.831 23.7668 17.919 24.5268L8.176 32.6428L6.8 33.7818V36.3628C6.8 38.1418 8.245 39.5878 10.025 39.5878H37.975C39.755 39.5878 41.2 38.1418 41.2 36.3628V28.8378Z" fill="url(#paint0_linear)"/>
<path d="M33.138 11.0996C31.061 11.0996 29.375 12.7856 29.375 14.8616C29.375 16.9386 31.061 18.6246 33.138 18.6246C35.214 18.6246 36.9 16.9386 36.9 14.8616C36.9 12.7856 35.214 11.0996 33.138 11.0996Z" fill="url(#paint1_linear)"/>
<defs>
<linearGradient id="paint0_linear" x1="24" y1="43.8878" x2="24" y2="4.11182" gradientUnits="userSpaceOnUse">
<stop stop-color="#00B59C"/>
<stop offset="1" stop-color="#9CFFAC"/>
</linearGradient>
<linearGradient id="paint1_linear" x1="33.1375" y1="18.6246" x2="33.1375" y2="11.0996" gradientUnits="userSpaceOnUse">
<stop stop-color="#5570FF"/>
<stop offset="1" stop-color="#4DD3FF"/>
</linearGradient>
</defs>
</svg>
