<svg width="128" height="128" viewBox="0 0 128 128" fill="none" xmlns="http://www.w3.org/2000/svg">
<path d="M118.462 42.4492H103.308C101.651 42.4492 100.308 41.1061 100.308 39.4492V24.7246C100.308 23.8053 99.8442 22.8942 98.9783 22.2178L80.8243 8.03819C79.9735 7.3734 78.8193 7 77.6154 7H50.3846C49.1811 7 48.0267 7.3734 47.1757 8.03819L29.0217 22.2178C28.1918 22.8661 27.6924 23.7665 27.6924 24.7246V39.4492C27.6924 41.1061 26.3492 42.4492 24.6924 42.4492H9.53843C7.03201 42.4492 5 44.0364 5 45.9941V124.455C5 126.413 7.03201 128 9.53843 128H118.462C120.967 128 123 126.413 123 124.455V45.9941C123 44.0364 120.967 42.4492 118.462 42.4492ZM51.4505 14.7256C51.9779 14.3136 52.6279 14.0898 53.2972 14.0898H74.7027C75.372 14.0898 76.022 14.3136 76.5494 14.7256L77.9447 15.8154C80.1934 17.5718 78.9514 21.1797 76.098 21.1797H51.9019C49.0485 21.1797 47.8065 17.5719 50.0552 15.8154L51.4505 14.7256ZM88.2308 28.2695C89.8876 28.2695 91.2308 29.6127 91.2308 31.2695V53.6289C91.2308 55.2858 89.8876 56.6289 88.2308 56.6289H85.1538C83.497 56.6289 82.1538 55.2858 82.1538 53.6289V31.2695C82.1538 29.6127 83.497 28.2695 85.1538 28.2695H88.2308ZM70.077 28.2695C71.7338 28.2695 73.077 29.6127 73.077 31.2695V39.4492C73.077 41.1061 71.7338 42.4492 70.077 42.4492H57.923C56.2662 42.4492 54.923 41.1061 54.923 39.4492V31.2695C54.923 29.6127 56.2662 28.2695 57.923 28.2695H70.077ZM36.7692 31.2695C36.7692 29.6127 38.1124 28.2695 39.7692 28.2695H42.8462C44.503 28.2695 45.8462 29.6127 45.8462 31.2695V53.6289C45.8462 55.2858 44.503 56.6289 42.8462 56.6289H39.7692C38.1124 56.6289 36.7692 55.2858 36.7692 53.6289V31.2695ZM113.924 117.91C113.924 119.567 112.58 120.91 110.924 120.91H17.077C15.4201 120.91 14.077 119.567 14.077 117.91V52.5391C14.077 50.8822 15.4201 49.5391 17.077 49.5391H24.6924C26.3492 49.5391 27.6924 50.8822 27.6924 52.5391V60.1738C27.6924 62.1316 29.7244 63.7188 32.2308 63.7188H50.3846C52.891 63.7188 54.923 62.1316 54.923 60.1738V52.5391C54.923 50.8822 56.2662 49.5391 57.923 49.5391H70.077C71.7338 49.5391 73.077 50.8822 73.077 52.5391V60.1738C73.077 62.1316 75.109 63.7188 77.6154 63.7188H95.7692C98.2756 63.7188 100.308 62.1316 100.308 60.1738V52.5391C100.308 50.8822 101.651 49.5391 103.308 49.5391H110.924C112.58 49.5391 113.924 50.8822 113.924 52.5391V117.91Z" fill="url(#paint0_linear)"/>
<path fill-rule="evenodd" clip-rule="evenodd" d="M74.1423 73.3413C77.1877 76.3853 79.0588 80.4067 79.4251 84.6955C79.7915 88.9842 78.6296 93.2644 76.1445 96.7801L75.6217 97.4841L91.2576 113.112L91.5357 113.435C91.9432 113.986 92.1392 114.666 92.0879 115.35C92.0367 116.034 91.7417 116.676 91.2565 117.161C90.7713 117.646 90.1281 117.941 89.4438 117.992C88.7595 118.043 88.0796 117.847 87.5275 117.44L87.2049 117.162L71.4207 101.393C67.6539 103.909 63.0859 104.937 58.6035 104.276C54.1211 103.616 50.0443 101.314 47.1646 97.8189C44.2849 94.3234 42.8078 89.8833 43.0201 85.3607C43.2324 80.8381 45.119 76.5557 48.3135 73.345C51.7388 69.9226 56.3842 68 61.2279 68C66.0716 68 70.717 69.9226 74.1423 73.345V73.3413ZM61.026 99.478C68.316 99.478 74.2256 93.5683 74.2256 86.2784C74.2256 78.9884 68.316 73.0788 61.026 73.0788C53.7361 73.0788 47.8264 78.9884 47.8264 86.2784C47.8264 93.5683 53.7361 99.478 61.026 99.478Z" fill="url(#paint1_linear)"/>
<path d="M79.4251 84.6955L77.9306 84.8231L77.9306 84.8232L79.4251 84.6955ZM74.1423 73.3413L75.2027 72.2804L72.6423 69.7212V73.3413H74.1423ZM76.1445 96.7801L77.3487 97.6745L77.3592 97.6603L77.3694 97.6459L76.1445 96.7801ZM75.6217 97.4841L74.4174 96.5898L73.6453 97.6295L74.5613 98.545L75.6217 97.4841ZM91.2576 113.112L92.3933 112.133L92.3572 112.091L92.318 112.052L91.2576 113.112ZM91.5357 113.435L92.7421 112.544L92.7084 112.498L92.6714 112.455L91.5357 113.435ZM91.2565 117.161L90.1962 116.1L90.1962 116.1L91.2565 117.161ZM89.4438 117.992L89.5557 119.488L89.5557 119.488L89.4438 117.992ZM87.5275 117.44L86.5485 118.577L86.5914 118.614L86.637 118.647L87.5275 117.44ZM87.2049 117.162L86.1448 118.223L86.1839 118.263L86.2259 118.299L87.2049 117.162ZM71.4207 101.393L72.4809 100.332L71.6105 99.4624L70.5875 100.146L71.4207 101.393ZM58.6035 104.276L58.8221 102.792L58.8221 102.792L58.6035 104.276ZM43.0201 85.3607L41.5217 85.2904L43.0201 85.3607ZM48.3135 73.345L47.2533 72.2839L47.2502 72.287L48.3135 73.345ZM74.1423 73.345L73.082 74.4061L75.6423 76.9642V73.345H74.1423ZM80.9197 84.5678C80.5232 79.9264 78.4983 75.5744 75.2027 72.2804L73.0818 74.4022C75.8771 77.1962 77.5944 80.8871 77.9306 84.8231L80.9197 84.5678ZM77.3694 97.6459C80.0587 93.8413 81.3162 89.2092 80.9197 84.5678L77.9306 84.8232C78.2668 88.7592 77.2004 92.6875 74.9196 95.9143L77.3694 97.6459ZM76.8259 98.3784L77.3487 97.6745L74.9402 95.8858L74.4174 96.5898L76.8259 98.3784ZM92.318 112.052L76.6821 96.4232L74.5613 98.545L90.1972 114.173L92.318 112.052ZM92.6714 112.455L92.3933 112.133L90.1218 114.092L90.3999 114.415L92.6714 112.455ZM93.5838 115.462C93.6618 114.42 93.3631 113.384 92.7421 112.544L90.3292 114.326C90.5233 114.589 90.6165 114.912 90.5921 115.238L93.5838 115.462ZM92.3167 118.222C93.056 117.483 93.5057 116.504 93.5838 115.462L90.5921 115.238C90.5678 115.563 90.4274 115.869 90.1962 116.1L92.3167 118.222ZM89.5557 119.488C90.5978 119.41 91.5775 118.961 92.3168 118.222L90.1962 116.1C89.965 116.331 89.6583 116.472 89.3319 116.496L89.5557 119.488ZM86.637 118.647C87.478 119.268 88.5136 119.566 89.5557 119.488L89.3319 116.496C89.0054 116.521 88.6811 116.427 88.418 116.233L86.637 118.647ZM86.2259 118.299L86.5485 118.577L88.5065 116.304L88.1839 116.026L86.2259 118.299ZM70.3606 102.454L86.1448 118.223L88.2651 116.101L72.4809 100.332L70.3606 102.454ZM58.3848 105.76C63.2349 106.475 68.1779 105.363 72.2539 102.64L70.5875 100.146C67.13 102.455 62.9368 103.399 58.8221 102.792L58.3848 105.76ZM46.0068 98.7727C49.1231 102.555 53.5347 105.046 58.3848 105.76L58.8221 102.792C54.7075 102.186 50.9654 100.073 48.3223 96.8651L46.0068 98.7727ZM41.5217 85.2904C41.2919 90.1849 42.8905 94.99 46.0068 98.7727L48.3223 96.8651C45.6792 93.6568 44.3236 89.5818 44.5184 85.4311L41.5217 85.2904ZM47.2502 72.287C43.7933 75.7615 41.7515 80.3958 41.5217 85.2904L44.5184 85.4311C44.7133 81.2804 46.4447 77.3499 49.3769 74.403L47.2502 72.287ZM61.2279 66.5C55.9867 66.5 50.96 68.5804 47.2533 72.2839L49.3738 74.4061C52.5176 71.2649 56.7816 69.5 61.2279 69.5V66.5ZM75.2025 72.2839C71.4958 68.5804 66.4691 66.5 61.2279 66.5V69.5C65.6742 69.5 69.9382 71.2649 73.082 74.4061L75.2025 72.2839ZM72.6423 73.3413V73.345H75.6423V73.3413H72.6423ZM72.7256 86.2784C72.7256 92.7399 67.4875 97.978 61.026 97.978V100.978C69.1444 100.978 75.7256 94.3968 75.7256 86.2784H72.7256ZM61.026 74.5788C67.4875 74.5788 72.7256 79.8169 72.7256 86.2784H75.7256C75.7256 78.16 69.1444 71.5788 61.026 71.5788V74.5788ZM49.3264 86.2784C49.3264 79.8169 54.5645 74.5788 61.026 74.5788V71.5788C52.9076 71.5788 46.3264 78.16 46.3264 86.2784H49.3264ZM61.026 97.978C54.5645 97.978 49.3264 92.7399 49.3264 86.2784H46.3264C46.3264 94.3968 52.9076 100.978 61.026 100.978V97.978Z" fill="url(#paint2_linear)"/>
<defs>
<linearGradient id="paint0_linear" x1="64" y1="128" x2="64" y2="7" gradientUnits="userSpaceOnUse">
<stop stop-color="#A93AFF"/>
<stop offset="1" stop-color="#FF81FF"/>
</linearGradient>
<linearGradient id="paint1_linear" x1="67.548" y1="118" x2="67.548" y2="68" gradientUnits="userSpaceOnUse">
<stop stop-color="#00B59C"/>
<stop offset="1" stop-color="#9CFFAC"/>
</linearGradient>
<linearGradient id="paint2_linear" x1="67.548" y1="118" x2="67.548" y2="68" gradientUnits="userSpaceOnUse">
<stop stop-color="#00B59C"/>
<stop offset="1" stop-color="#9CFFAC"/>
</linearGradient>
</defs>
</svg>
