<svg width="64" height="64" viewBox="0 0 64 64" fill="none" xmlns="http://www.w3.org/2000/svg">
<path d="M7.96257 4.30334C10.4707 3.76365 13.0736 4.1325 15.6229 4.0199C16.8749 4.08591 18.4358 3.72094 19.3625 4.74984C20.5774 5.91851 19.8196 8.17044 18.0857 8.40728C15.3634 8.56647 12.6329 8.37622 9.91472 8.48882C8.28381 8.57035 6.8547 9.88268 6.73526 11.4163C6.59112 13.2334 6.82587 15.0621 6.62406 16.8792C6.34401 18.3624 4.2683 19.1272 2.99981 18.1954C2.26672 17.7411 1.97431 16.887 2.01549 16.091C2.01961 14.3982 1.95784 12.7015 2.06492 11.0086C2.30379 7.90642 4.79134 5.12257 7.96257 4.30334Z" fill="url(#paint0_linear)" stroke="url(#paint1_linear)"/>
<path d="M24.7001 6.33388C24.5848 5.09144 25.7709 3.94218 27.0929 4.03148C36.4542 4.01983 45.8196 4.01595 55.1809 4.03148C59.2911 4.07807 62.9071 7.52197 62.9854 11.3852C63.0101 20.8355 62.9978 30.2936 62.9895 39.744C63.0595 43.7004 59.4064 47.319 55.1974 47.3733C49.5468 47.3733 43.8922 47.4238 38.2416 47.3384C41.4664 49.9242 44.4317 52.7935 47.5576 55.488C48.3154 56.1986 49.3739 56.8508 49.4356 57.9652C49.5757 59.2658 48.3278 60.4695 46.9398 60.3452C37.3109 60.3569 27.6819 60.3569 18.057 60.3452C16.6691 60.4733 15.38 59.3008 15.5118 57.9885C15.5406 57.045 16.3519 56.4121 17.0191 55.8181C20.2563 53.0187 23.3904 50.1067 26.6728 47.35C21.0676 47.4044 15.4624 47.3694 9.85712 47.3656C5.80042 47.3267 2.18852 43.9721 2.05261 40.1555C1.95377 35.4963 2.0485 30.8372 2.00731 26.178C1.96201 25.2423 2.10615 24.1513 3.04105 23.6232C4.44956 22.6138 6.71884 23.7125 6.66942 25.3782C6.75179 30.1655 6.64883 34.9567 6.71061 39.7478C6.69825 41.5105 8.41565 43.0209 10.2772 42.951C24.9637 42.9665 39.6543 42.9355 54.3448 42.951C56.1817 43.1296 58.0679 41.8716 58.2574 40.1012C58.3809 38.0356 58.278 35.9623 58.2986 33.8928C49.6869 33.8423 41.071 34.0132 32.4593 33.9239C31.162 33.9588 30.0335 32.8251 30.1406 31.6098C30.1529 30.4567 31.2649 29.4472 32.4922 29.4977C41.0998 29.4511 49.7074 29.4627 58.3109 29.4239C58.2903 23.5417 58.3274 17.6595 58.2945 11.7773C58.3439 9.99909 56.6677 8.41886 54.7814 8.4771C45.5725 8.44604 36.3595 8.48875 27.1465 8.4538C25.8862 8.55087 24.7083 7.52197 24.7001 6.33388ZM23.7776 55.9035C29.5805 55.9151 35.3793 55.9151 41.1822 55.8996C38.2622 53.372 35.4122 50.7706 32.5046 48.2353C29.5722 50.7668 26.714 53.3759 23.7776 55.9035Z" fill="url(#paint2_linear)" stroke="url(#paint3_linear)"/>
<defs>
<linearGradient id="paint0_linear" x1="10.9792" y1="18.6024" x2="10.9792" y2="4" gradientUnits="userSpaceOnUse">
<stop stop-color="#5570FF"/>
<stop offset="1" stop-color="#4DD3FF"/>
</linearGradient>
<linearGradient id="paint1_linear" x1="10.9792" y1="18.6024" x2="10.9792" y2="4" gradientUnits="userSpaceOnUse">
<stop stop-color="#5570FF"/>
<stop offset="1" stop-color="#4DD3FF"/>
</linearGradient>
<linearGradient id="paint2_linear" x1="10.9333" y1="52.1049" x2="50.6413" y2="9.10772" gradientUnits="userSpaceOnUse">
<stop stop-color="#0072FF"/>
<stop offset="1" stop-color="#00E5A1"/>
</linearGradient>
<linearGradient id="paint3_linear" x1="10.9333" y1="52.1049" x2="50.6413" y2="9.10772" gradientUnits="userSpaceOnUse">
<stop stop-color="#0072FF"/>
<stop offset="1" stop-color="#00E5A1"/>
</linearGradient>
</defs>
</svg>
