<svg width="64" height="64" viewBox="0 0 64 64" fill="none" xmlns="http://www.w3.org/2000/svg">
<path d="M17.126 12.2942L10.4092 14.7807C8.73914 15.3989 7.37902 16.6658 6.62793 18.3029C5.87683 19.94 5.79627 21.8132 6.40394 23.5106L17.8668 55.5182C18.1679 56.3589 18.6292 57.1312 19.2241 57.7908C19.819 58.4504 20.5359 58.9844 21.334 59.3624C22.132 59.7404 22.9955 59.9549 23.8751 59.9937C24.7547 60.0325 25.6332 59.8948 26.4605 59.5885L45.1228 52.1018" stroke="url(#paint0_linear)" stroke-width="6" stroke-linecap="round" stroke-linejoin="round"/>
<path fill-rule="evenodd" clip-rule="evenodd" d="M25.4397 17.8374C25.4397 16.4567 26.559 15.3374 27.9397 15.3374H44.6982C46.0789 15.3374 47.1982 16.4567 47.1982 17.8374C47.1982 19.2181 46.0789 20.3374 44.6982 20.3374H27.9397C26.559 20.3374 25.4397 19.2181 25.4397 17.8374ZM25.335 27.843C25.335 26.4623 26.4542 25.343 27.835 25.343H47.9451C49.3259 25.343 50.4451 26.4623 50.4451 27.843C50.4451 29.2237 49.3259 30.343 47.9451 30.343H27.835C26.4542 30.343 25.335 29.2237 25.335 27.843ZM27.9397 35.4548C26.559 35.4548 25.4397 36.5741 25.4397 37.9548C25.4397 39.3355 26.559 40.4548 27.9397 40.4548H37.9948C39.3755 40.4548 40.4948 39.3355 40.4948 37.9548C40.4948 36.5741 39.3755 35.4548 37.9948 35.4548H27.9397Z" fill="url(#paint1_linear)"/>
<path fill-rule="evenodd" clip-rule="evenodd" d="M58.0002 44.8737V10.8123C58.0002 9.00556 57.2939 7.27282 56.0368 5.99527C54.7796 4.71772 53.0746 4 51.2968 4H24.4832C22.7053 4 21.0003 4.71772 19.7432 5.99527C18.486 7.27282 17.7798 9.00556 17.7798 10.8123V44.8737C17.7798 46.6805 18.486 48.4132 19.7432 49.6907C21.0003 50.9683 22.7053 51.686 24.4832 51.686H51.2968C53.0746 51.686 54.7796 50.9683 56.0368 49.6907C57.2939 48.4132 58.0002 46.6805 58.0002 44.8737Z" stroke="url(#paint2_linear)" stroke-width="6" stroke-linecap="round" stroke-linejoin="round"/>
<defs>
<linearGradient id="paint0_linear" x1="25.5614" y1="60.0001" x2="25.5614" y2="12.2942" gradientUnits="userSpaceOnUse">
<stop stop-color="#5570FF"/>
<stop offset="1" stop-color="#4DD3FF"/>
</linearGradient>
<linearGradient id="paint1_linear" x1="37.8901" y1="39.9548" x2="37.8901" y2="15.8374" gradientUnits="userSpaceOnUse">
<stop stop-color="#00B59C"/>
<stop offset="1" stop-color="#9CFFAC"/>
</linearGradient>
<linearGradient id="paint2_linear" x1="37.89" y1="51.686" x2="37.89" y2="4" gradientUnits="userSpaceOnUse">
<stop stop-color="#00B59C"/>
<stop offset="1" stop-color="#9CFFAC"/>
</linearGradient>
</defs>
</svg>
