<svg width="180" height="192" viewBox="0 0 180 192" fill="none" xmlns="http://www.w3.org/2000/svg">
<path fill-rule="evenodd" clip-rule="evenodd" d="M56.9547 52.9497L56.9521 52.9598C55.626 57.9784 54.204 62.9762 52.7819 67.9738C50.1841 77.1037 47.5864 86.2329 45.5747 95.4868L45.1689 95.7523C44.434 97.8149 43.8639 99.9256 43.2934 102.037C42.8769 103.579 42.4603 105.121 41.9792 106.646C41.8691 107.075 41.7437 107.51 41.6171 107.949C41.0005 110.087 40.3558 112.323 41.3106 114.458C42.0547 114.486 42.8007 114.523 43.5477 114.561C46.7185 114.72 49.9074 114.88 53.0388 114.28C54.1303 113.589 54.6354 112.382 55.1282 111.205C55.2887 110.821 55.4479 110.441 55.6256 110.082C55.7132 109.596 55.8887 108.635 55.9873 108.149C56.3709 106.126 56.7984 104.105 57.4999 102.172C63.2586 101.615 69.0772 101.775 74.8648 101.934L74.8693 101.935C75.6238 101.955 76.3777 101.976 77.1309 101.995C78.3561 104.35 78.8475 106.966 79.3362 109.567C79.4596 110.224 79.5829 110.88 79.7177 111.53L80.1561 113.607C84.5844 115.154 89.451 115.088 93.934 113.795C92.6754 107.218 90.7665 100.799 88.8573 94.3787C87.6905 90.4553 86.5237 86.5314 85.505 82.571C84.5362 79.4877 83.7441 76.3457 82.9522 73.2043C81.8626 68.8823 80.7732 64.5613 79.2244 60.3961L78.9924 60.0937C79.0698 60.1945 79.1471 60.2953 79.2244 60.3961C78.9638 59.3714 78.7394 58.3183 78.5133 57.2592C77.7888 53.8646 77.0505 50.4055 75.0705 47.6012C72.3998 45.9859 69.1768 46.1837 66.0272 46.3771C64.7173 46.4575 63.42 46.5371 62.1804 46.4852C58.6226 46.3307 57.645 50.2101 56.9547 52.9497ZM68.5595 65.5556C68.3081 65.5791 67.9259 65.6152 67.5524 65.6505C67.2255 65.6814 66.9053 65.7116 66.6854 65.7322C66.6485 65.895 66.6116 66.0577 66.5746 66.2205C65.461 71.1298 64.3457 76.046 62.871 80.8691C62.3668 78.3832 61.8188 75.8972 61.0077 73.4886C61.0078 73.4885 61.0076 73.4887 61.0077 73.4886C61.8188 75.8972 62.3668 78.3832 62.871 80.8691C62.679 81.6888 62.4751 82.5066 62.2715 83.3241C61.6845 85.6804 61.0974 88.0372 60.7881 90.4489C65.2492 90.703 69.7433 90.7251 74.2153 90.4268C73.5843 86.59 72.5642 82.8363 71.5441 79.0823C70.3316 74.6204 69.1191 70.1579 68.5595 65.5556C68.5595 65.5555 68.5595 65.5557 68.5595 65.5556Z" fill="url(#paint0_linear)"/>
<path fill-rule="evenodd" clip-rule="evenodd" d="M104.873 63.8208C108.683 60.404 114.087 60.2351 118.929 60.0837L119.199 60.0752C119.616 60.0788 120.035 60.0806 120.457 60.0825C125.259 60.1035 130.333 60.1258 134.544 62.716C138.545 65.2903 139.739 70.4059 139.761 74.9027C139.794 80.2444 139.79 85.5862 139.786 90.9279C139.781 96.646 139.777 102.364 139.817 108.082C139.793 108.549 139.795 109.031 139.796 109.517C139.802 111.266 139.807 113.075 138.633 114.458C134.555 114.922 130.248 115.043 126.971 112.204C119.44 117.021 108.239 116.645 101.705 110.204C99.6259 105.842 99.7653 100.965 99.9005 96.2341C99.9149 95.7289 99.9293 95.2254 99.9409 94.7244C99.9738 90.349 102.516 85.9185 106.671 84.3164C110.8 82.6081 115.229 82.6474 119.647 82.6866C121.774 82.7055 123.897 82.7244 125.984 82.5485L127.014 82.438C127.003 81.6665 127.046 80.8369 127.091 79.9841C127.256 76.8314 127.437 73.3627 124.909 71.345C121.742 70.4722 117.15 69.7651 114.804 72.6599C114.497 73.7427 114.245 74.8364 114.036 75.9524C111.198 80.2062 105.125 78.4936 101.036 77.3004C100.784 72.5936 101.256 67.2459 104.873 63.8208ZM112.952 97.0557L112.948 97.1233C112.76 99.8315 112.477 103.932 115.987 104.481C116.45 104.518 116.933 104.568 117.428 104.62C120.473 104.938 123.98 105.305 126.148 102.9C127.365 99.7295 127.321 96.1828 126.741 92.8682C123.178 92.6804 119.583 92.5588 116.053 93.0118C114.157 93.2991 112.765 95.1221 112.952 97.0557Z" fill="url(#paint1_linear)"/>
<path fill-rule="evenodd" clip-rule="evenodd" d="M126.276 9.03906C121.402 9.00394 116.526 8.96881 111.657 9.18449C109.422 13.4935 107.109 17.7694 104.708 21.9901C108.071 21.9931 111.433 22.0066 114.796 22.0201C123.852 22.0566 132.908 22.093 141.964 21.9238C142.451 21.1488 142.924 20.3292 143.405 19.4977C143.935 18.58 144.474 17.648 145.047 16.7459C144.475 17.6457 143.938 18.5753 143.409 19.4908L143.408 19.4929L143.404 19.4995C142.924 20.3304 142.45 21.1493 141.964 21.9238C147.795 21.4488 154.286 23.5812 156.894 29.2714C157.672 30.7409 158.308 32.2987 158.834 33.8788C158.931 46.5414 158.908 59.2045 158.884 71.8659V71.87C158.858 86.0864 158.831 100.301 158.976 114.513C159.151 119.927 166.353 121.761 169.762 117.96C170.616 114.734 170.879 111.386 170.835 108.05C170.78 97.8639 170.789 87.68 170.799 77.4963C170.81 65.455 170.821 53.4141 170.726 41.3699C170.781 38.0885 170.726 34.7958 170.485 31.5143C168.842 22.0565 162.297 13.4273 153.145 10.3227C148.94 8.89077 144.523 8.96042 140.124 9.02993C138.617 9.05374 137.112 9.07752 135.619 9.04087C132.507 9.08396 129.392 9.06151 126.276 9.03906ZM159.832 45.9718C159.906 42.3718 159.98 38.7748 159.194 35.2698C159.981 38.7755 159.907 42.3734 159.833 45.9742C159.778 48.6407 159.723 51.3091 160.018 53.9427L160.017 53.9435C159.722 51.3092 159.777 48.6404 159.832 45.9732L159.832 45.9718Z" fill="url(#paint2_linear)"/>
<path fill-rule="evenodd" clip-rule="evenodd" d="M49.8448 22.0288C54.2753 22.055 58.7057 22.0811 63.1339 22.0013L66.3382 22.0092C79.1262 22.0405 91.9222 22.0717 104.708 21.9901C107.109 17.7694 109.422 13.4935 111.657 9.18449C98.5269 8.94142 85.3626 8.94166 72.2314 9.18473C65.2264 8.97394 58.2175 9.00652 51.2093 9.0392C46.4621 9.06134 41.7153 9.08348 36.9702 9.02994C32.1693 8.88631 27.1931 9.53818 22.995 12.0573C14.0071 16.8856 8.76778 27.2384 9.03084 37.3481C9.09459 45.3895 9.06441 53.4342 9.03422 61.4791C8.98656 74.1817 8.9389 86.8845 9.26102 99.5749C8.93669 108.79 8.98706 118.027 9.03754 127.264C9.06895 133.011 9.10037 138.758 9.04151 144.5C9.08433 146.224 9.05875 147.961 9.03312 149.701C8.96035 154.642 8.88724 159.607 10.3788 164.354C10.501 164.64 10.6881 165.073 10.8743 165.505C11.0553 165.924 11.2354 166.342 11.3543 166.619C14.6644 174.873 22.2275 181.612 31.1606 182.629C33.0678 182.838 34.9861 182.927 36.9042 182.949C59.5203 182.949 82.1364 182.959 104.753 182.97C115.041 182.974 125.33 182.979 135.619 182.983C136.74 182.974 137.862 182.982 138.985 182.989C142.342 183.012 145.703 183.034 149.045 182.629C156.235 181.723 162.439 177.005 166.495 171.127C171.321 163.504 171.118 154.45 170.922 145.679C170.879 143.772 170.836 141.877 170.846 140.014C170.869 136.368 167.91 132.942 164.149 133.131C163.025 133.124 161.9 133.116 160.776 133.109L160.771 133.109C152.798 133.055 144.817 133.001 136.846 133.186C134.298 136.561 131.939 140.064 129.578 143.571C128.995 144.437 128.411 145.303 127.825 146.168C132.641 146.22 137.457 146.206 142.273 146.191C147.64 146.175 153.007 146.159 158.373 146.235C159.371 150.852 159.151 155.747 158.045 160.332C156.379 165.271 151.983 169.481 146.667 169.845C143.582 170.024 140.489 169.988 137.396 169.952C133.984 169.912 130.571 169.872 127.167 170.121C109.269 169.812 91.347 169.823 73.4588 170.132C66.1452 169.852 58.8217 169.898 51.4991 169.943H51.4965C45.5301 169.981 39.5643 170.018 33.6051 169.879C28.2452 169.614 23.5978 165.459 21.9537 160.432C20.9632 157.256 21.0038 153.925 21.0441 150.613C21.0556 149.673 21.067 148.735 21.0549 147.803C21.0768 123.495 21.0695 99.1865 21.0622 74.8816V74.8672C21.0585 62.7207 21.0549 50.575 21.0549 38.4305C21.0878 36.5412 21.1756 34.6629 21.3729 32.7846C20.8907 35.359 20.7372 37.9886 20.7153 40.6072C20.7701 55.9872 20.6386 71.3782 20.4303 86.7692C20.628 97.8975 20.5179 109.026 20.4077 120.155C20.3164 129.389 20.225 138.624 20.3095 147.859C20.2917 148.296 20.2855 148.744 20.2792 149.196C20.2715 149.747 20.2636 150.305 20.2348 150.86C20.2635 150.306 20.2712 149.749 20.2789 149.2L20.2792 149.196C20.2855 148.744 20.2917 148.296 20.3095 147.859C20.225 138.624 20.3164 129.389 20.4077 120.155C20.5179 109.026 20.628 97.8975 20.4303 86.7692C20.6386 71.3782 20.7701 55.9872 20.7153 40.6072C20.7372 37.9886 20.8907 35.359 21.3729 32.7846C23.0171 27.2712 27.7521 22.3106 33.7258 22.1228C39.0967 21.9654 44.4709 21.9971 49.8448 22.0288Z" fill="url(#paint3_linear)"/>
<path d="M37.0685 138.058C37.6604 134.555 41.3543 132.755 44.6207 133.086C50.105 133.123 55.5923 133.101 61.0805 133.078H61.0822C70.3459 133.04 79.6126 133.002 88.8698 133.251C104.84 132.92 120.854 133.053 136.846 133.186C134.298 136.561 131.939 140.064 129.578 143.571C128.995 144.437 128.411 145.303 127.825 146.168C112.074 146.235 96.3233 146.235 80.5835 146.146C75.3458 146.228 70.1117 146.216 64.8792 146.203C61.056 146.194 57.2336 146.184 53.4113 146.212C52.5476 146.21 51.682 146.217 50.8155 146.224H50.8097C47.005 146.255 43.1842 146.287 39.4361 145.549C37.781 143.505 35.9725 140.776 37.0685 138.058Z" fill="url(#paint4_linear)"/>
<path d="M111.657 9.18449C116.526 8.96881 121.402 9.00394 126.276 9.03906C129.392 9.06151 132.507 9.08396 135.619 9.04087C137.112 9.07752 138.617 9.05374 140.124 9.02993C144.523 8.96042 148.94 8.89077 153.145 10.3227M111.657 9.18449C109.422 13.4935 107.109 17.7694 104.708 21.9901M111.657 9.18449C98.5269 8.94142 85.3626 8.94166 72.2314 9.18473C65.2264 8.97394 58.2175 9.00652 51.2093 9.0392C46.4621 9.06134 41.7153 9.08348 36.9702 9.02994C32.1693 8.88631 27.1931 9.53818 22.995 12.0573C14.0071 16.8856 8.76778 27.2384 9.03084 37.3481C9.09459 45.3895 9.06441 53.4342 9.03422 61.4791C8.98656 74.1817 8.9389 86.8845 9.26102 99.5749C8.93669 108.79 8.98706 118.027 9.03754 127.264C9.06895 133.011 9.10037 138.758 9.04151 144.5C9.08433 146.224 9.05875 147.961 9.03312 149.701C8.96035 154.642 8.88724 159.607 10.3788 164.354C10.501 164.64 10.6881 165.073 10.8743 165.505C11.0553 165.924 11.2354 166.342 11.3543 166.619M104.708 21.9901C108.071 21.9931 111.433 22.0066 114.796 22.0201C123.852 22.0566 132.908 22.093 141.964 21.9238M104.708 21.9901C91.9222 22.0717 79.1262 22.0405 66.3382 22.0092L63.1339 22.0013C58.7057 22.0811 54.2753 22.055 49.8448 22.0288C44.4709 21.9971 39.0967 21.9654 33.7258 22.1228C27.7521 22.3106 23.0171 27.2712 21.3729 32.7846M141.964 21.9238C142.451 21.1488 142.924 20.3292 143.405 19.4977C143.935 18.58 144.474 17.648 145.047 16.7459C144.475 17.6457 143.938 18.5753 143.409 19.4908L143.408 19.4929L143.404 19.4995C142.924 20.3304 142.45 21.1493 141.964 21.9238ZM141.964 21.9238C147.795 21.4488 154.286 23.5812 156.894 29.2714C157.672 30.7409 158.308 32.2987 158.834 33.8788C158.931 46.5414 158.908 59.2045 158.884 71.8659V71.87C158.858 86.0864 158.831 100.301 158.976 114.513C159.151 119.927 166.353 121.761 169.762 117.96C170.616 114.734 170.879 111.386 170.835 108.05C170.78 97.8639 170.789 87.68 170.799 77.4963C170.81 65.455 170.821 53.4141 170.726 41.3699M170.726 41.3699C170.406 41.6023 170.099 41.8453 169.801 42.0975M170.726 41.3699C170.781 38.0885 170.726 34.7958 170.485 31.5143C168.842 22.0565 162.297 13.4273 153.145 10.3227M153.145 10.3227C152.823 10.3762 152.512 10.4447 152.21 10.5272M11.3543 166.619C11.5007 166.268 11.6558 165.921 11.8188 165.58M11.3543 166.619C14.6644 174.873 22.2275 181.612 31.1606 182.629C33.0678 182.838 34.9861 182.927 36.9042 182.949C59.5203 182.949 82.1364 182.959 104.753 182.97C115.041 182.974 125.33 182.979 135.619 182.983C136.74 182.974 137.862 182.982 138.985 182.989C142.342 183.012 145.703 183.034 149.045 182.629C156.235 181.723 162.439 177.005 166.495 171.127C171.321 163.504 171.118 154.45 170.922 145.679C170.879 143.772 170.836 141.877 170.846 140.014C170.869 136.368 167.91 132.942 164.149 133.131C163.025 133.124 161.9 133.116 160.776 133.109L160.771 133.109C152.798 133.055 144.817 133.001 136.846 133.186M136.846 133.186C134.298 136.561 131.939 140.064 129.578 143.571C128.995 144.437 128.411 145.303 127.825 146.168M136.846 133.186C120.854 133.053 104.84 132.92 88.8698 133.251C79.6126 133.002 70.3459 133.04 61.0822 133.078H61.0805C55.5923 133.101 50.105 133.123 44.6207 133.086C41.3543 132.755 37.6604 134.555 37.0685 138.058C35.9725 140.776 37.781 143.505 39.4361 145.549C43.1842 146.287 47.005 146.255 50.8097 146.224H50.8155C51.682 146.217 52.5476 146.21 53.4113 146.212C57.2336 146.184 61.056 146.194 64.8792 146.203C70.1117 146.216 75.3458 146.228 80.5835 146.146C96.3233 146.235 112.074 146.235 127.825 146.168M127.825 146.168C132.641 146.22 137.457 146.206 142.273 146.191C147.64 146.175 153.007 146.159 158.373 146.235C159.371 150.852 159.151 155.747 158.045 160.332C156.379 165.271 151.983 169.481 146.667 169.845C143.582 170.024 140.489 169.988 137.396 169.952C133.984 169.912 130.571 169.872 127.167 170.121M127.167 170.121C126.683 170.202 126.198 170.275 125.712 170.343M127.167 170.121C109.269 169.812 91.347 169.823 73.4588 170.132C66.1452 169.852 58.8217 169.898 51.4991 169.943H51.4965C45.5301 169.981 39.5643 170.018 33.6051 169.879C28.2452 169.614 23.5978 165.459 21.9537 160.432C20.9632 157.256 21.0038 153.925 21.0441 150.613C21.0556 149.673 21.067 148.735 21.0549 147.803C21.0768 123.495 21.0695 99.1865 21.0622 74.8816V74.8672C21.0585 62.7207 21.0549 50.575 21.0549 38.4305C21.0878 36.5412 21.1756 34.6629 21.3729 32.7846M21.3729 32.7846C20.8907 35.359 20.7372 37.9886 20.7153 40.6072C20.7701 55.9872 20.6386 71.3782 20.4303 86.7692C20.628 97.8975 20.5179 109.026 20.4077 120.155C20.3164 129.389 20.225 138.624 20.3095 147.859C20.2917 148.296 20.2855 148.744 20.2792 149.196M20.2792 149.196C20.2715 149.747 20.2636 150.305 20.2348 150.86C20.2635 150.306 20.2712 149.749 20.2789 149.2L20.2792 149.196ZM120.068 170.925C119.729 170.952 119.389 170.98 119.049 171.007M114.358 171.429C111.761 171.713 109.183 172.118 106.66 172.851C102.509 173.996 100.384 178.212 98.5789 181.795L98.5593 181.834M159.194 35.2698C159.98 38.7748 159.906 42.3718 159.832 45.9718L159.832 45.9732C159.777 48.6404 159.722 51.3092 160.017 53.9435L160.018 53.9427C159.723 51.3091 159.778 48.6407 159.833 45.9742C159.907 42.3734 159.981 38.7755 159.194 35.2698Z" stroke="url(#paint5_linear)" stroke-width="4"/>
<defs>
<linearGradient id="paint0_linear" x1="90.3212" y1="115.473" x2="90.3212" y2="46.2495" gradientUnits="userSpaceOnUse">
<stop stop-color="#00B59C"/>
<stop offset="1" stop-color="#9CFFAC"/>
</linearGradient>
<linearGradient id="paint1_linear" x1="90.3212" y1="115.473" x2="90.3212" y2="46.2495" gradientUnits="userSpaceOnUse">
<stop stop-color="#00B59C"/>
<stop offset="1" stop-color="#9CFFAC"/>
</linearGradient>
<linearGradient id="paint2_linear" x1="89.9992" y1="185" x2="89.9992" y2="6.99998" gradientUnits="userSpaceOnUse">
<stop stop-color="#5570FF"/>
<stop offset="1" stop-color="#4DD3FF"/>
</linearGradient>
<linearGradient id="paint3_linear" x1="89.9992" y1="185" x2="89.9992" y2="6.99998" gradientUnits="userSpaceOnUse">
<stop stop-color="#5570FF"/>
<stop offset="1" stop-color="#4DD3FF"/>
</linearGradient>
<linearGradient id="paint4_linear" x1="89.9992" y1="185" x2="89.9992" y2="6.99998" gradientUnits="userSpaceOnUse">
<stop stop-color="#5570FF"/>
<stop offset="1" stop-color="#4DD3FF"/>
</linearGradient>
<linearGradient id="paint5_linear" x1="89.9992" y1="185" x2="89.9992" y2="6.99998" gradientUnits="userSpaceOnUse">
<stop stop-color="#5570FF"/>
<stop offset="1" stop-color="#4DD3FF"/>
</linearGradient>
</defs>
</svg>
