<svg width="64" height="64" viewBox="0 0 64 64" fill="none" xmlns="http://www.w3.org/2000/svg">
<path d="M6.96233 4.30334C9.4705 3.76365 12.0734 4.1325 14.6227 4.0199C15.8747 4.08591 17.4356 3.72094 18.3623 4.74984C19.5772 5.91851 18.8194 8.17044 17.0855 8.40728C14.3632 8.56647 11.6327 8.37622 8.91448 8.48882C7.28357 8.57035 5.85446 9.88268 5.73502 11.4163C5.59088 13.2334 5.82563 15.0621 5.62382 16.8792C5.34377 18.3624 3.26806 19.1272 1.99957 18.1954C1.26648 17.7411 0.974069 16.887 1.01525 16.091C1.01937 14.3982 0.957599 12.7015 1.06468 11.0086C1.30355 7.90642 3.7911 5.12257 6.96233 4.30334Z" fill="url(#paint0_linear)" stroke="url(#paint1_linear)" stroke-width="2"/>
<path d="M23.7001 6.33413C23.5848 5.09169 24.7709 3.94243 26.0929 4.03173C35.4542 4.02008 44.8196 4.0162 54.1809 4.03173C58.2911 4.07832 61.9071 7.52222 61.9854 11.3855C62.0101 20.8358 61.9978 30.2939 61.9895 39.7443C62.0595 43.7007 58.4064 47.3193 54.1974 47.3736C48.5468 47.3736 42.8922 47.4241 37.2416 47.3387C40.4664 49.9245 43.4317 52.7938 46.5576 55.4883C47.3154 56.1989 48.3739 56.8511 48.4356 57.9655C48.5757 59.2661 47.3278 60.4698 45.9398 60.3455C36.3109 60.3572 26.6819 60.3572 17.057 60.3455C15.6691 60.4736 14.38 59.3011 14.5118 57.9888C14.5406 57.0453 15.3519 56.4124 16.0191 55.8184C19.2563 53.019 22.3904 50.107 25.6728 47.3503C20.0676 47.4047 14.4624 47.3697 8.85712 47.3659C4.80042 47.327 1.18852 43.9724 1.05261 40.1558C0.953771 35.4966 1.0485 30.8375 1.00731 26.1783C0.962011 25.2426 1.10615 24.1516 2.04105 23.6235C3.44956 22.6141 5.71884 23.7128 5.66942 25.3785C5.75179 30.1658 5.64883 34.957 5.71061 39.7481C5.69825 41.5108 7.41565 43.0212 9.2772 42.9513C23.9637 42.9668 38.6543 42.9358 53.3448 42.9513C55.1817 43.1299 57.0679 41.8719 57.2574 40.1015C57.3809 38.0359 57.278 35.9626 57.2986 33.8931C48.6869 33.8426 40.071 34.0135 31.4593 33.9242C30.162 33.9591 29.0335 32.8254 29.1406 31.6101C29.1529 30.457 30.2649 29.4475 31.4922 29.498C40.0998 29.4514 48.7074 29.463 57.3109 29.4242C57.2903 23.542 57.3274 17.6598 57.2945 11.7776C57.3439 9.99934 55.6677 8.41911 53.7814 8.47735C44.5725 8.44629 35.3595 8.489 26.1465 8.45405C24.8862 8.55112 23.7083 7.52222 23.7001 6.33413ZM22.7776 55.9038C28.5805 55.9154 34.3793 55.9154 40.1822 55.8999C37.2622 53.3723 34.4122 50.7709 31.5046 48.2356C28.5722 50.7671 25.714 53.3762 22.7776 55.9038Z" fill="url(#paint2_linear)" stroke="url(#paint3_linear)" stroke-width="2"/>
<defs>
<linearGradient id="paint0_linear" x1="9.9789" y1="18.6024" x2="9.9789" y2="4" gradientUnits="userSpaceOnUse">
<stop stop-color="#A93AFF"/>
<stop offset="1" stop-color="#FF81FF"/>
</linearGradient>
<linearGradient id="paint1_linear" x1="9.9789" y1="18.6024" x2="9.9789" y2="4" gradientUnits="userSpaceOnUse">
<stop stop-color="#A93AFF"/>
<stop offset="1" stop-color="#FF81FF"/>
</linearGradient>
<linearGradient id="paint2_linear" x1="31.5" y1="60.3551" x2="31.5" y2="4.02149" gradientUnits="userSpaceOnUse">
<stop stop-color="#A93AFF"/>
<stop offset="1" stop-color="#FF81FF"/>
</linearGradient>
<linearGradient id="paint3_linear" x1="31.5" y1="60.3551" x2="31.5" y2="4.02149" gradientUnits="userSpaceOnUse">
<stop stop-color="#A93AFF"/>
<stop offset="1" stop-color="#FF81FF"/>
</linearGradient>
</defs>
</svg>
